G04 ---------------------------- Layer name :TOP SOLDER LAYER*
G04 EasyEDA v5.8.22, Thu, 27 Dec 2018 09:17:19 GMT*
G04 5b8e4972239041578b0c1e23d4052a26*
G04 Gerber Generator version 0.2*
G04 Scale: 100 percent, Rotated: No, Reflected: No *
G04 Dimensions in millimeters *
G04 leading zeros omitted , absolute positions ,3 integer and 3 decimal *
%FSLAX33Y33*%
%MOMM*%
G90*
G71D02*

%ADD23C,0.903199*%
%ADD24R,2.603195X1.503197*%
%ADD25R,1.003300X1.003300*%
%ADD26R,2.703195X0.703199*%
%ADD27R,1.803197X0.703199*%
%ADD28R,0.853186X0.803148*%
%ADD29R,1.402080X0.754380*%
%ADD30R,3.203194X1.303198*%

%LPD*%
G54D23*
G01X17499Y5249D02*
G01X18999Y5249D01*
G01X17499Y3979D02*
G01X18999Y3979D01*
G01X17499Y2709D02*
G01X18999Y2709D01*
G01X17499Y1439D02*
G01X18999Y1439D01*
G01X10249Y5249D02*
G01X11749Y5249D01*
G01X10249Y3979D02*
G01X11749Y3979D01*
G01X10249Y2709D02*
G01X11749Y2709D01*
G01X10249Y1439D02*
G01X11749Y1439D01*
G01X16295Y5249D02*
G01X17795Y5249D01*
G01X16295Y3979D02*
G01X17795Y3979D01*
G01X16295Y2709D02*
G01X17795Y2709D01*
G01X16295Y1439D02*
G01X17795Y1439D01*
G54D24*
G01X22249Y6000D03*
G01X22249Y4001D03*
G01X22249Y2000D03*
G01X22249Y7999D03*
G54D25*
G01X14001Y8501D03*
G01X14001Y6977D03*
G54D26*
G01X8001Y2250D03*
G54D27*
G01X8001Y3449D03*
G54D26*
G01X8001Y4648D03*
G54D28*
G01X5501Y3250D03*
G01X5501Y2401D03*
G54D29*
G01X7749Y8753D03*
G01X7749Y7813D03*
G01X7749Y6873D03*
G01X10340Y6873D03*
G01X10340Y8753D03*
G54D28*
G01X5504Y5498D03*
G01X5504Y4649D03*
G01X5501Y7751D03*
G01X5501Y6902D03*
G01X12001Y7751D03*
G01X12001Y6902D03*
G54D30*
G01X1997Y8003D03*
G01X1997Y6002D03*
G01X1997Y4003D03*
G01X1997Y2001D03*
M00*
M02*
